<?xml version="1.0" standalone="no"?><!DOCTYPE svg PUBLIC "-//W3C//DTD SVG 1.1//EN" "http://www.w3.org/Graphics/SVG/1.1/DTD/svg11.dtd"><svg t="1756740501063" class="icon" viewBox="0 0 1024 1024" version="1.1" xmlns="http://www.w3.org/2000/svg" p-id="8246" xmlns:xlink="http://www.w3.org/1999/xlink" width="200" height="200"><path d="M256 298.672v-128a85.328 85.328 0 1 1 170.672 0v128zM597.328 298.672v-128a85.328 85.328 0 1 1 170.672 0v128z" fill="#FA8F82" p-id="8247"></path><path d="M512 554.672m-384 0a384 384 0 1 0 768 0 384 384 0 1 0-768 0Z" fill="#D9D9D9" p-id="8248"></path><path d="M384 426.672m-42.672 0a42.672 42.672 0 1 0 85.344 0 42.672 42.672 0 1 0-85.344 0Z" fill="#807A6E" p-id="8249"></path><path d="M640 426.672m-42.672 0a42.672 42.672 0 1 0 85.344 0 42.672 42.672 0 1 0-85.344 0Z" fill="#807A6E" p-id="8250"></path><path d="M512 725.328m-128 0a128 128 0 1 0 256 0 128 128 0 1 0-256 0Z" fill="#F5F5F5" p-id="8251"></path><path d="M512 640m-42.672 0a42.672 42.672 0 1 0 85.344 0 42.672 42.672 0 1 0-85.344 0Z" fill="#FA8F82" p-id="8252"></path><path d="M661.328 405.328m-21.328 0a21.328 21.328 0 1 0 42.656 0 21.328 21.328 0 1 0-42.656 0Z" fill="#F5F5F5" p-id="8253"></path><path d="M405.328 405.328m-21.328 0a21.328 21.328 0 1 0 42.656 0 21.328 21.328 0 1 0-42.656 0Z" fill="#F5F5F5" p-id="8254"></path><path d="M384 373.328a53.328 53.328 0 1 0 53.328 53.344A53.376 53.376 0 0 0 384 373.328z m0 85.344a32 32 0 1 1 32-32 32.032 32.032 0 0 1-32 32zM693.328 426.672A53.328 53.328 0 1 0 640 480a53.376 53.376 0 0 0 53.328-53.328z m-85.328 0a32 32 0 1 1 32 32 32.032 32.032 0 0 1-32-32z" fill="#231F20" p-id="8255"></path><path d="M778.672 263.36v-92.688a95.856 95.856 0 0 0-191.68-3.28 381.504 381.504 0 0 0-149.984 0.112 95.872 95.872 0 0 0-191.68 3.168v93.456a393.104 393.104 0 0 0-105.536 158.976 10.672 10.672 0 0 0 20.128 7.12 373.76 373.76 0 0 1 476.512-227.632 10.56 10.56 0 0 0 13.632-6.512 10.704 10.704 0 0 0-6.496-13.616 394.256 394.256 0 0 0-35.568-10.56v-1.232a74.672 74.672 0 1 1 149.328 0v75.808a397.76 397.76 0 0 0-69.92-45.456 10.672 10.672 0 1 0-9.488 19.104 377.008 377.008 0 0 1 82.4 55.856 9.2 9.2 0 0 0 0.768 0.608 370.928 370.928 0 0 1 124.256 278.08c0 10.8-0.72 21.44-1.632 32h-158.384a10.672 10.672 0 0 0 0 21.328h155.744a370.032 370.032 0 0 1-14.912 64h-140.832a10.672 10.672 0 0 0 0 21.328h133.008a372.912 372.912 0 0 1-692.672 0h133.008a10.672 10.672 0 0 0 0-21.328H157.84a370.032 370.032 0 0 1-14.912-64h155.744a10.672 10.672 0 0 0 0-21.328H140.288a374.368 374.368 0 0 1-1.616-32 375.248 375.248 0 0 1 9.248-82.976 10.656 10.656 0 0 0-20.8-4.72A394.656 394.656 0 1 0 778.672 263.36zM416 172.032a395.68 395.68 0 0 0-149.328 73.856v-75.216a74.672 74.672 0 1 1 149.328 0z" fill="#231F20" p-id="8256"></path><path d="M373.328 725.328a138.656 138.656 0 0 0 242.032 92.448 10.672 10.672 0 1 0-15.92-14.208 117.232 117.232 0 1 1-136.448-184.496 53.328 53.328 0 1 0 98.032 0 116.992 116.992 0 0 1 61.632 145.36 10.672 10.672 0 1 0 20.128 7.136 138.688 138.688 0 1 0-269.44-46.24zM544 640a32 32 0 1 1-32-32 32.032 32.032 0 0 1 32 32z" fill="#231F20" p-id="8257"></path></svg>